<?xml version="1.0" encoding="UTF-8"?>
<!DOCTYPE svg PUBLIC "-//W3C//DTD SVG 1.1//EN" "http://www.w3.org/Graphics/SVG/1.1/DTD/svg11.dtd">
<!-- Creator: CorelDRAW 2020 (64-Bit) -->
<svg xmlns="http://www.w3.org/2000/svg" xml:space="preserve" width="257.07mm" height="248.541mm" version="1.1" style="shape-rendering:geometricPrecision; text-rendering:geometricPrecision; image-rendering:optimizeQuality; fill-rule:evenodd; clip-rule:evenodd"
viewBox="0 0 18651.63 18032.81"
 xmlns:xlink="http://www.w3.org/1999/xlink"
 xmlns:xodm="http://www.corel.com/coreldraw/odm/2003">
 <defs>
  <style type="text/css">
   <![CDATA[
    .fil0 {fill:#FEFEFE;fill-rule:nonzero}
   ]]>
  </style>
 </defs>
 <g id="PowerClip_x0020_Contents">
  <metadata id="CorelCorpID_0Corel-Layer"/>
  <g id="_2295140368800">
   <polygon class="fil0" points="14104.86,243.68 6758.64,0 916.21,5037.91 -0,12406.28 4546.77,17789.04 11892.88,18032.81 17735.31,12994.9 18651.63,5626.44 18525.28,5476.87 17659.95,12435.98 12142.13,17193.98 5204.03,16963.74 909.96,11880.15 1775.29,4921.03 7293.11,163.03 14231.21,393.27 "/>
   <polygon class="fil0" points="14357.48,542.75 7827.57,326.06 2634.26,4804.24 1819.84,11353.92 5861.38,16138.55 12391.28,16355.24 17584.59,11877.06 18399.01,5327.38 18272.66,5177.8 17509.14,11318.23 12640.43,15516.5 6518.64,15313.26 2729.81,10827.79 3493.23,4687.45 8361.94,489.18 14483.82,692.33 "/>
   <polygon class="fil0" points="14610.09,841.81 8896.41,652.21 4352.3,4570.57 3639.69,10301.57 7175.99,14488.07 12889.68,14677.68 17433.78,10759.31 18146.39,5028.32 18020.13,4878.83 17358.32,10200.48 13138.83,13838.94 7833.23,13662.97 4549.47,9775.43 5211.28,4453.79 9430.76,815.33 14736.36,991.29 "/>
   <polygon class="fil0" points="14862.71,1140.87 9965.24,978.36 6070.25,4336.99 5459.43,9249.3 8490.5,12837.68 13387.98,13000.2 17282.96,9641.56 17893.78,4729.25 17767.51,4579.77 17207.61,9082.64 13637.23,12161.37 9147.85,12012.49 6369.32,8723.07 6929.32,4220.12 10499.71,1141.39 14988.98,1290.36 "/>
   <polygon class="fil0" points="15115.25,1439.84 11034.06,1304.5 7788.3,4103.33 7279.2,8196.85 9805.2,11187.29 13886.38,11322.63 17132.14,8523.81 17641.25,4430.29 17514.9,4280.71 17056.87,7964.98 14135.6,10483.98 10462.46,10362 8189.16,7670.72 8647.19,3986.44 11568.45,1467.44 15241.59,1589.42 "/>
   <polygon class="fil0" points="15367.86,1738.9 12102.82,1630.56 9506.16,3869.65 9099.04,7144.49 11119.81,9536.81 14384.75,9645.24 16981.41,7406.15 17388.63,4131.22 17262.36,3981.74 16906.05,6847.24 14634,8806.42 11777.16,8711.62 10008.92,6618.27 10365.23,3752.77 12637.28,1793.59 15494.13,1888.39 "/>
   <polygon class="fil0" points="15620.48,2037.97 13171.65,1956.71 11224.21,3635.98 10918.89,6092.14 12434.43,7886.33 14883.15,7967.68 16830.59,6288.4 17136.01,3832.16 17009.74,3682.67 16755.24,5729.49 15132.3,7128.94 13091.77,7061.13 11828.77,5565.91 12083.18,3519.19 13706.12,2119.74 15746.75,2187.45 "/>
   <polygon class="fil0" points="15873.09,2337.03 14240.58,2282.77 12942.25,3402.32 12738.64,5039.87 13748.94,6235.93 15381.55,6290.11 16679.88,5170.57 16883.4,3533.1 16757.13,3383.61 16604.42,4611.74 15630.7,5451.37 14406.28,5410.74 13648.52,4513.64 13801.23,3285.52 14774.95,2445.89 15999.36,2486.52 "/>
   <polygon class="fil0" points="16125.63,2636 15309.42,2608.92 14660.2,3168.73 14558.4,3987.42 15063.63,4585.55 15879.85,4612.63 16529.06,4052.81 16630.86,3234.13 16504.51,3084.55 16453.6,3493.99 16129.1,3773.8 15720.9,3760.26 15468.36,3461.29 15519.27,3051.85 15843.77,2772.03 16251.97,2785.58 "/>
  </g>
 </g>
</svg>
