<?xml version="1.0" encoding="UTF-8"?>
<!DOCTYPE svg PUBLIC "-//W3C//DTD SVG 1.1//EN" "http://www.w3.org/Graphics/SVG/1.1/DTD/svg11.dtd">
<!-- Creator: CorelDRAW 2020 (64-Bit) -->
<svg xmlns="http://www.w3.org/2000/svg" xml:space="preserve" width="44.45mm" height="38.4947mm" version="1.1" style="shape-rendering:geometricPrecision; text-rendering:geometricPrecision; image-rendering:optimizeQuality; fill-rule:evenodd; clip-rule:evenodd"
viewBox="0 0 1735.8 1503.24"
 xmlns:xlink="http://www.w3.org/1999/xlink"
 xmlns:xodm="http://www.corel.com/coreldraw/odm/2003">
 <defs>
  <style type="text/css">
   <![CDATA[
    .fil0 {fill:#EBECEC;fill-rule:nonzero}
   ]]>
  </style>
 </defs>
 <g id="Layer_x0020_1">
  <metadata id="CorelCorpID_0Corel-Layer"/>
  <g id="_2295160363664">
   <polygon class="fil0" points="173.58,0 -0,300.65 347.16,300.65 "/>
   <polygon class="fil0" points="520.74,0 347.16,300.65 694.32,300.65 "/>
   <polygon class="fil0" points="173.58,300.65 -0,601.3 347.16,601.3 "/>
   <polygon class="fil0" points="520.74,300.65 347.16,601.3 694.32,601.3 "/>
   <polygon class="fil0" points="867.9,0 694.32,300.65 1041.48,300.65 "/>
   <polygon class="fil0" points="867.9,300.65 694.32,601.3 1041.48,601.3 "/>
   <polygon class="fil0" points="173.58,601.3 -0,901.95 347.16,901.95 "/>
   <polygon class="fil0" points="520.74,601.3 347.16,901.95 694.32,901.95 "/>
   <polygon class="fil0" points="867.9,601.3 694.32,901.95 1041.48,901.95 "/>
   <polygon class="fil0" points="1215.06,0 1041.48,300.65 1388.64,300.65 "/>
   <polygon class="fil0" points="1215.06,300.65 1041.48,601.3 1388.64,601.3 "/>
   <polygon class="fil0" points="1215.06,601.3 1041.48,901.95 1388.64,901.95 "/>
   <polygon class="fil0" points="173.58,901.95 -0,1202.6 347.16,1202.6 "/>
   <polygon class="fil0" points="520.74,901.95 347.16,1202.6 694.32,1202.6 "/>
   <polygon class="fil0" points="867.9,901.95 694.32,1202.6 1041.48,1202.6 "/>
   <polygon class="fil0" points="1215.06,901.95 1041.48,1202.6 1388.64,1202.6 "/>
   <polygon class="fil0" points="173.58,1202.6 -0,1503.24 347.16,1503.24 "/>
   <polygon class="fil0" points="520.74,1202.6 347.16,1503.24 694.32,1503.24 "/>
   <polygon class="fil0" points="867.9,1202.6 694.32,1503.24 1041.48,1503.24 "/>
   <polygon class="fil0" points="1215.06,1202.6 1041.48,1503.24 1388.64,1503.24 "/>
   <polygon class="fil0" points="1562.22,0 1388.64,300.65 1735.8,300.65 "/>
   <polygon class="fil0" points="1562.22,300.65 1388.64,601.3 1735.8,601.3 "/>
   <polygon class="fil0" points="1562.22,601.3 1388.64,901.95 1735.8,901.95 "/>
   <polygon class="fil0" points="1562.22,901.95 1388.64,1202.6 1735.8,1202.6 "/>
   <polygon class="fil0" points="1562.22,1202.6 1388.64,1503.24 1735.8,1503.24 "/>
  </g>
 </g>
</svg>
